<svg xmlns="http://www.w3.org/2000/svg" width="208.72mm" height="110.19mm" viewBox="0 0 591.63 312.34">
  <defs>
    <style>
      .a {
        fill: #231f20;
      }
    </style>
  </defs>
  <g>
    <path class="a" d="M447,70.94h61.81V294.48h-47.9q-28.26,0-38.23-1.32A58,58,0,0,1,403,286.71q-9.66-5.13-19-17.14a87,87,0,0,1-14.28-28.63,125.38,125.38,0,0,1-5-36.11q0-39.12,17.29-63.5t44.23-24.39a36.26,36.26,0,0,1,20.66,6.3Zm0,159.38v-39.7a13,13,0,0,0-9.82-4.4q-5.56,0-9.37,5.94t-3.81,15q0,13.34,4.47,18.24t16.77,4.91Z" transform="translate(-142.83 -26.18)"/>
    <path class="a" d="M522.35,294.48V26.18H607.7q35.74,0,54.79,6.86t36.42,25.4q17.39,18.56,26.47,45t9.08,58.81a166.38,166.38,0,0,1-7.91,51.52,136.44,136.44,0,0,1-22.17,42.63q-14.25,18.19-30.86,26.2t-31.15,9.93q-14.55,1.93-48.73,1.94Zm91.6-166h-2v61.89h2.34q16.41,0,23.83-7.47t7.42-23.82q0-16.18-7.42-23.39T614,128.5Z" transform="translate(-142.83 -26.18)"/>
    <path class="a" d="M142.83,294.48V26.18h85.35q35.74,0,54.78,6.86t36.43,25.4q17.39,18.56,26.46,45t9.09,58.81A166.38,166.38,0,0,1,347,213.78a136.86,136.86,0,0,1-22.17,42.63Q310.6,274.61,294,282.61t-31.15,9.93q-14.55,1.93-48.73,1.94Zm91.6-166h-2v61.89h2.34q16.41,0,23.83-7.47t7.42-23.82q0-16.18-7.42-23.39T234.43,128.5Z" transform="translate(-142.83 -26.18)"/>
  </g>
  <g>
    <g>
      <path class="a" d="M186,332v-29.8h8.54a15.28,15.28,0,0,1,5.47.76,9.58,9.58,0,0,1,3.65,2.82,14.2,14.2,0,0,1,2.64,5,21.93,21.93,0,0,1,.91,6.53,20.29,20.29,0,0,1-.79,5.73,15.78,15.78,0,0,1-2.22,4.73,9.21,9.21,0,0,1-3.08,2.91,9.73,9.73,0,0,1-3.12,1.11,38.77,38.77,0,0,1-4.87.21Zm9.16-18.44H195v6.88h.24a3.05,3.05,0,0,0,2.38-.83,3.89,3.89,0,0,0,.74-2.65,3.71,3.71,0,0,0-.74-2.59A3.14,3.14,0,0,0,195.2,313.51Z" transform="translate(-142.83 -26.18)"/>
      <path class="a" d="M225,308a7.22,7.22,0,0,1,6.14,3.44,15.1,15.1,0,0,1,2.42,8.88q0,5.5-2.43,8.75a7.73,7.73,0,0,1-6.54,3.24,7.16,7.16,0,0,1-6.14-3.44,15.72,15.72,0,0,1-2.38-9.07,13.74,13.74,0,0,1,2.5-8.49A7.71,7.71,0,0,1,225,308Zm-.19,14.65a1.52,1.52,0,0,0,1.27-.74,3.1,3.1,0,0,0,.52-1.86,3.74,3.74,0,0,0-.47-2,1.41,1.41,0,0,0-1.25-.76,1.52,1.52,0,0,0-1.32.74,3.36,3.36,0,0,0-.51,1.95,3.44,3.44,0,0,0,.51,1.9A1.46,1.46,0,0,0,224.78,322.6Z" transform="translate(-142.83 -26.18)"/>
      <path class="a" d="M242.92,308.48h8.25v2.91q2-3.11,4.92-3.11,3.48,0,5.16,4.06,2.63-4.06,5.58-4.06a5.12,5.12,0,0,1,2.89.82,5.24,5.24,0,0,1,1.91,2.36,11.92,11.92,0,0,1,.85,3.17,55.2,55.2,0,0,1,.19,5.64V332h-7.75V321.07a25.72,25.72,0,0,0-.26-4.8,1.21,1.21,0,0,0-1.31-1,1.91,1.91,0,0,0-1.42.8V332h-7.77V321.07a24.43,24.43,0,0,0-.27-4.79,1.21,1.21,0,0,0-1.3-1,2.22,2.22,0,0,0-1.42.8V332h-8.25Z" transform="translate(-142.83 -26.18)"/>
      <path class="a" d="M299,321.72h-8.4a5.46,5.46,0,0,0,1.49,2.82,3.42,3.42,0,0,0,2.41,1A5.24,5.24,0,0,0,299,323v4.12q-2.84,5.16-7.82,5.15a7.89,7.89,0,0,1-6.72-3.42q-2.48-3.43-2.48-9.37a15.37,15.37,0,0,1,1.23-6.14,9.24,9.24,0,0,1,3.11-4.14,7.44,7.44,0,0,1,4.28-1.28,6.3,6.3,0,0,1,2.91.75,8.47,8.47,0,0,1,2.66,2.27,11,11,0,0,1,1.91,3.76,18,18,0,0,1,.79,3.67C298.91,319.31,299,320.43,299,321.72Zm-8.89-4.12h3.85a6.13,6.13,0,0,0-.61-2.73,1.41,1.41,0,0,0-2.69,0,5,5,0,0,0-.55,2.5Z" transform="translate(-142.83 -26.18)"/>
      <path class="a" d="M308.79,323.07a7.53,7.53,0,0,0,2,2.6,3.78,3.78,0,0,0,2.33,1c1.07,0,1.6-.57,1.6-1.72a2.14,2.14,0,0,0-.35-1.2,2.28,2.28,0,0,0-1.06-.81l-1.83-.84a6.25,6.25,0,0,1-3-2.68,8.64,8.64,0,0,1-1-4.35,6.59,6.59,0,0,1,2.13-5.24,8.88,8.88,0,0,1,6-1.85,12.24,12.24,0,0,1,6.84,2l-2,6c-1.29-1.71-2.52-2.56-3.71-2.56a1.36,1.36,0,0,0-1,.38,1.33,1.33,0,0,0-.39,1,1.91,1.91,0,0,0,.54,1.43,6,6,0,0,0,2,1.05q3.15,1.13,4.06,3.09a10,10,0,0,1,.91,4.2,7.79,7.79,0,0,1-2,5.62,7,7,0,0,1-5.35,2.09,15.15,15.15,0,0,1-4.21-.69,19.63,19.63,0,0,1-4.4-1.9Z" transform="translate(-142.83 -26.18)"/>
      <path class="a" d="M342.43,302.15h8.24V332h-6.38a49.86,49.86,0,0,1-5.1-.17,7.91,7.91,0,0,1-2.62-.86,8.25,8.25,0,0,1-2.53-2.29,11.69,11.69,0,0,1-1.9-3.82,16.75,16.75,0,0,1-.66-4.81,14.31,14.31,0,0,1,2.3-8.47,7,7,0,0,1,5.9-3.25,4.82,4.82,0,0,1,2.75.84Zm0,21.25v-5.3a1.72,1.72,0,0,0-1.31-.58,1.47,1.47,0,0,0-1.25.79,4.77,4.77,0,0,0,.09,4.43,3,3,0,0,0,2.24.66Z" transform="translate(-142.83 -26.18)"/>
      <path class="a" d="M368.59,332v-1.76a5.5,5.5,0,0,1-1.86,1.4,4.74,4.74,0,0,1-2.05.52,3.7,3.7,0,0,1-3.13-1.71,8.75,8.75,0,0,1,.31-9.4,5.09,5.09,0,0,1,4.13-1.84,7.12,7.12,0,0,1,2.56.55q-.07-3.4-3.07-3.4a7.52,7.52,0,0,0-4.76,1.83v-7.07a11.74,11.74,0,0,1,8-2.79,8.9,8.9,0,0,1,4.09.86,6,6,0,0,1,2.58,2.54,11,11,0,0,1,1.19,3.43,36.24,36.24,0,0,1,.28,5.32V332Zm0-5.19v-3.28a2.84,2.84,0,0,0-1.31-.38,1.56,1.56,0,0,0-1.24.56,2.09,2.09,0,0,0-.48,1.42,2.77,2.77,0,0,0,.48,1.67,1.48,1.48,0,0,0,1.24.65A1.52,1.52,0,0,0,368.59,326.76Z" transform="translate(-142.83 -26.18)"/>
      <path class="a" d="M403.59,308.48l-8.63,30h-9l3.32-11.4-5.65-18.63h8.17l1.91,6.23,1.84-6.23Z" transform="translate(-142.83 -26.18)"/>
      <path class="a" d="M432.75,332v-29.8h8.53a15.34,15.34,0,0,1,5.48.76,9.55,9.55,0,0,1,3.64,2.82,14.22,14.22,0,0,1,2.65,5,22.26,22.26,0,0,1,.91,6.53,20.66,20.66,0,0,1-.79,5.73,15.78,15.78,0,0,1-2.22,4.73,9.14,9.14,0,0,1-3.09,2.91,9.68,9.68,0,0,1-3.11,1.11,39,39,0,0,1-4.88.21Zm9.16-18.44h-.2v6.88h.23a3.08,3.08,0,0,0,2.39-.83,3.94,3.94,0,0,0,.74-2.65,3.76,3.76,0,0,0-.74-2.59A3.17,3.17,0,0,0,441.91,313.51Z" transform="translate(-142.83 -26.18)"/>
      <path class="a" d="M473.84,308.48h8.23V332H474.2v-4.12a10.66,10.66,0,0,1-2.53,3.24,4.86,4.86,0,0,1-3.08,1,4.61,4.61,0,0,1-2.73-.88,5.3,5.3,0,0,1-1.87-2.31,9.87,9.87,0,0,1-.76-3c-.1-1.06-.15-3.16-.15-6.28V308.48h7.76V320a17.86,17.86,0,0,0,.21,3.27,1.21,1.21,0,0,0,1.35,1,1.28,1.28,0,0,0,1-.52,1.56,1.56,0,0,0,.43-.73Z" transform="translate(-142.83 -26.18)"/>
      <path class="a" d="M491.92,308.48h8.24v1.75a5.31,5.31,0,0,1,3.86-2c2,0,3.72,1.09,5.08,3.27a15.3,15.3,0,0,1,2,8.27,16.2,16.2,0,0,1-2.19,8.86q-2.2,3.44-5.56,3.43a6.15,6.15,0,0,1-3.24-1v7.4h-8.24Zm8.24,10.31V323a2.35,2.35,0,0,0,1.38.56,1.36,1.36,0,0,0,1.23-.79,4.43,4.43,0,0,0,.45-2.18,4.35,4.35,0,0,0-.45-2.08,1.32,1.32,0,0,0-1.15-.83,1.34,1.34,0,0,0-1,.49C500.3,318.53,500.16,318.72,500.16,318.79Z" transform="translate(-142.83 -26.18)"/>
      <path class="a" d="M528.87,302.15V332h-8.24v-29.8Z" transform="translate(-142.83 -26.18)"/>
      <path class="a" d="M538.84,332V308.48a7.18,7.18,0,0,0,8.24,0V332Zm5.84-30.19a2,2,0,0,1,1.67,1,4,4,0,0,1,.69,2.39,4.35,4.35,0,0,1-.68,2.47,2,2,0,0,1-1.68,1,1.94,1.94,0,0,1-1.6-1,4.29,4.29,0,0,1-.69-2.46,4.08,4.08,0,0,1,.69-2.37A1.94,1.94,0,0,1,544.68,301.76Z" transform="translate(-142.83 -26.18)"/>
      <path class="a" d="M571.71,321.07v10.2a12.82,12.82,0,0,1-5.15,1,8.93,8.93,0,0,1-7.37-3.29q-2.67-3.29-2.67-9.19a14.9,14.9,0,0,1,2.35-8.1q2.36-3.74,7.42-3.73a13.08,13.08,0,0,1,5.42,1.4v10.32a8,8,0,0,0-4.47-1.76,2.76,2.76,0,0,0-1.81.57,1.8,1.8,0,0,0-.71,1.48c0,1.51.93,2.27,2.8,2.27A6.94,6.94,0,0,0,571.71,321.07Z" transform="translate(-142.83 -26.18)"/>
      <path class="a" d="M589.67,332v-1.76a5.5,5.5,0,0,1-1.86,1.4,4.74,4.74,0,0,1-2,.52,3.7,3.7,0,0,1-3.13-1.71,8.75,8.75,0,0,1,.31-9.4,5.09,5.09,0,0,1,4.13-1.84,7.12,7.12,0,0,1,2.56.55q-.07-3.4-3.07-3.4a7.52,7.52,0,0,0-4.76,1.83v-7.07a11.74,11.74,0,0,1,8-2.79,8.9,8.9,0,0,1,4.09.86,6,6,0,0,1,2.58,2.54,11,11,0,0,1,1.19,3.43,36.24,36.24,0,0,1,.28,5.32V332Zm0-5.19v-3.28a2.84,2.84,0,0,0-1.31-.38,1.56,1.56,0,0,0-1.24.56,2.09,2.09,0,0,0-.48,1.42,2.77,2.77,0,0,0,.48,1.67,1.48,1.48,0,0,0,1.24.65A1.52,1.52,0,0,0,589.67,326.76Z" transform="translate(-142.83 -26.18)"/>
      <path class="a" d="M616.8,308.48h3.48V315H616.8v3.14a17,17,0,0,0,.24,3.43,1.22,1.22,0,0,0,1.33,1c.74,0,1.38-.56,1.91-1.68v9.31a6.81,6.81,0,0,1-4.92,1.84,5.46,5.46,0,0,1-2.76-.78,7.38,7.38,0,0,1-2.37-2.3,8.63,8.63,0,0,1-1.35-3.23,40.35,40.35,0,0,1-.32-6.21V315h-3.28l11.52-13.32Z" transform="translate(-142.83 -26.18)"/>
      <path class="a" d="M638,308a7.21,7.21,0,0,1,6.14,3.44,15.1,15.1,0,0,1,2.42,8.88q0,5.5-2.43,8.75a7.73,7.73,0,0,1-6.54,3.24,7.16,7.16,0,0,1-6.14-3.44,15.72,15.72,0,0,1-2.37-9.07,13.67,13.67,0,0,1,2.5-8.49A7.68,7.68,0,0,1,638,308Zm-.19,14.65a1.52,1.52,0,0,0,1.27-.74,3.1,3.1,0,0,0,.52-1.86,3.74,3.74,0,0,0-.47-2,1.41,1.41,0,0,0-1.25-.76,1.52,1.52,0,0,0-1.32.74,3.36,3.36,0,0,0-.51,1.95,3.44,3.44,0,0,0,.51,1.9A1.46,1.46,0,0,0,637.77,322.6Z" transform="translate(-142.83 -26.18)"/>
      <path class="a" d="M664.16,325.47V332h-8.24V308.48h8.24v5q1.58-5.2,4.55-5.2a3.17,3.17,0,0,1,2.74,1.62,7.64,7.64,0,0,1,1.07,4.26,6.83,6.83,0,0,1-1.1,4,3.32,3.32,0,0,1-2.83,1.56c-1.18,0-2.25-.72-3.2-2.15a4.64,4.64,0,0,0-1,2.15A40.73,40.73,0,0,0,664.16,325.47Z" transform="translate(-142.83 -26.18)"/>
    </g>
    <g>
      <path class="a" d="M369.25,100.9h-9V83.15h-4.52V71.1h18V83.15h-4.51Z" transform="translate(-142.83 -26.18)"/>
      <path class="a" d="M382.65,71.1h8.25v9.36A5.69,5.69,0,0,1,396,77.23a4.75,4.75,0,0,1,2.68.9,5.71,5.71,0,0,1,2.05,2.61,10.55,10.55,0,0,1,.84,3.31c.08,1.07.12,2.88.12,5.45v11.4h-7.78V89.75a20.73,20.73,0,0,0-.28-4.42,1.22,1.22,0,0,0-1.28-1,1.86,1.86,0,0,0-1.42.92V100.9h-8.25Z" transform="translate(-142.83 -26.18)"/>
      <path class="a" d="M427.93,90.67h-8.4a5.54,5.54,0,0,0,1.5,2.82,3.42,3.42,0,0,0,2.41,1,5.19,5.19,0,0,0,4.49-2.56v4.12q-2.83,5.16-7.81,5.16a7.87,7.87,0,0,1-6.72-3.43q-2.47-3.44-2.48-9.37a15.41,15.41,0,0,1,1.23-6.14,9.24,9.24,0,0,1,3.11-4.14,7.41,7.41,0,0,1,4.27-1.28,6.24,6.24,0,0,1,2.91.75,8.52,8.52,0,0,1,2.67,2.27,11,11,0,0,1,1.9,3.76,18.27,18.27,0,0,1,.8,3.67Q427.92,88.74,427.93,90.67Zm-8.88-4.12h3.84a6.31,6.31,0,0,0-.6-2.73c-.37-.67-.81-1-1.33-1a1.58,1.58,0,0,0-1.37,1,5.12,5.12,0,0,0-.54,2.5Z" transform="translate(-142.83 -26.18)"/>
    </g>
  </g>
</svg>
